# xmcd CD database file
#
# Track frame offsets:
#	150
#	25878
#	49267
#	86534
#	104413
#	108659
#	137709
#	161465
#	193165
#	201280
#	231511
#	250412
#	276772
#
# Disc length: 4128 seconds
#
# Revision: 0
# Processed by: cddbd v1.5.2PL0 Copyright (c) Steve Scherf et al.
# Submitted via: CDex 1.70beta3
#
DISCID=bf101e0d
DTITLE=HAJIME YOSHIZAWA - JAPAN
DYEAR=2008
DGENRE=Jazz
TTITLE0=Open Door
TTITLE1=Time feat. Navasha Daya
TTITLE2=Yoake-Dawn
TTITLE3=Home feat. Shanti
TTITLE4=Aska
TTITLE5=Eastern Step
TTITLE6=Celebration feat. Navasha Daya
TTITLE7=Satellite Dancer
TTITLE8=Rain...
TTITLE9=May
TTITLE10=The Seeds Of Spring feat. akiko
TTITLE11=Bristlecone Pine feat. Navasha Daya
TTITLE12=The Color Of Peace
EXTD=YEAR: 2008
EXTT0=
EXTT1=
EXTT2=
EXTT3=
EXTT4=
EXTT5=
EXTT6=
EXTT7=
EXTT8=
EXTT9=
EXTT10=
EXTT11=
EXTT12=
PLAYORDER=
